<svg width="162" height="36" viewBox="0 0 162 36" fill="none" xmlns="http://www.w3.org/2000/svg">
<path d="M0 34.7578V1.24219H10.207L13.0254 21.6753L15.8247 1.24219H26.127V34.7578H19.9951V10.6113L16.1484 34.7578H10.1309L6.05566 10.6113V34.7578H0Z" fill="#242221"/>
<path d="M39.4357 35.0625C36.757 35.0625 34.7067 34.2563 33.2848 32.644C31.8756 31.019 31.1711 28.6768 31.1711 25.6172V9.69727C31.1711 6.82812 31.8693 4.65088 33.2658 3.16553C34.675 1.68018 36.7316 0.9375 39.4357 0.9375C42.1398 0.9375 44.1901 1.68018 45.5866 3.16553C46.9958 4.65088 47.7004 6.82812 47.7004 9.69727V25.6172C47.7004 28.6768 46.9894 31.019 45.5675 32.644C44.1584 34.2563 42.1144 35.0625 39.4357 35.0625ZM39.4928 28.8926C40.5085 28.8926 41.0163 27.9087 41.0163 25.9409V9.58301C41.0163 7.93262 40.5212 7.10742 39.5309 7.10742C38.4137 7.10742 37.8551 7.95166 37.8551 9.64014V25.979C37.8551 27.02 37.9821 27.769 38.236 28.2261C38.4899 28.6704 38.9088 28.8926 39.4928 28.8926Z" fill="#242221"/>
<path d="M60.4949 35.0625C57.702 35.0625 55.6453 34.2817 54.325 32.7202C53.0047 31.146 52.3446 28.8354 52.3446 25.7886V1.24219H58.8572V25.522C58.8572 26.0806 58.889 26.6201 58.9525 27.1406C59.0159 27.6484 59.1619 28.0674 59.3904 28.3975C59.619 28.7275 59.9871 28.8926 60.4949 28.8926C61.0154 28.8926 61.39 28.7339 61.6185 28.4165C61.847 28.0864 61.9866 27.6611 62.0374 27.1406C62.1009 26.6201 62.1326 26.0806 62.1326 25.522V1.24219H68.6453V25.7886C68.6453 28.8354 67.9852 31.146 66.6649 32.7202C65.3446 34.2817 63.2879 35.0625 60.4949 35.0625Z" fill="#242221"/>
<path d="M73.5561 34.7578V1.24219H80.4497L83.5346 17.2954V1.24219H90.0093V34.7578H83.4585L80.1069 18V34.7578H73.5561Z" fill="#242221"/>
<path d="M98.1954 34.7578V7.67871H94.2155V1.24219H108.879V7.67871H104.899V34.7578H98.1954Z" fill="#242221"/>
<path d="M111.676 34.7578L114.913 1.24219H126.282L129.462 34.7578H123.12L122.644 29.3496H118.607L118.188 34.7578H111.676ZM119.083 23.9985H122.13L120.664 6.95508H120.359L119.083 23.9985Z" fill="#242221"/>
<path d="M133.554 34.7578V1.24219H140.028V34.7578H133.554Z" fill="#242221"/>
<path d="M145.034 34.7578V1.24219H151.928L155.013 17.2954V1.24219H161.487V34.7578H154.937L151.585 18V34.7578H145.034Z" fill="#242221"/>
</svg>
