<svg width="32" height="32" viewBox="0 0 32 32" fill="none" xmlns="http://www.w3.org/2000/svg">
<g clip-path="url(#clip0_1_17)">
<path d="M28.76 11.35C28.6661 11.2402 28.5496 11.1521 28.4184 11.0917C28.2872 11.0313 28.1444 11 28 11H22V7C22 6.20435 21.6839 5.44129 21.1213 4.87868C20.5587 4.31607 19.7957 4 19 4H13C12.2044 4 11.4413 4.31607 10.8787 4.87868C10.3161 5.44129 10 6.20435 10 7V11H4C3.85505 10.9984 3.71147 11.0283 3.57922 11.0876C3.44696 11.147 3.32919 11.2344 3.23407 11.3438C3.13895 11.4531 3.06875 11.5819 3.02833 11.7211C2.98791 11.8603 2.97825 12.0067 3 12.15L4.88 24.3C4.95232 24.7769 5.19457 25.2116 5.5621 25.524C5.92962 25.8364 6.39767 26.0055 6.88 26H25.14C25.6223 26.0055 26.0904 25.8364 26.4579 25.524C26.8254 25.2116 27.0677 24.7769 27.14 24.3L29 12.15C29.02 12.0072 29.0089 11.8618 28.9675 11.7237C28.9261 11.5857 28.8553 11.4582 28.76 11.35ZM12 7C12 6.73478 12.1054 6.48043 12.2929 6.29289C12.4804 6.10536 12.7348 6 13 6H19C19.2652 6 19.5196 6.10536 19.7071 6.29289C19.8946 6.48043 20 6.73478 20 7V11H12V7ZM25.14 24H6.86L5.17 13H26.83L25.14 24Z" fill="#242221"/>
</g>
<defs>
<clipPath id="clip0_1_17">
<rect width="32" height="32" fill="white"/>
</clipPath>
</defs>
</svg>
